<mxfile host="app.diagrams.net" modified="2024-06-26T18:53:17.130Z" agent="Mozilla/5.0 (Windows NT 10.0; Win64; x64) AppleWebKit/537.36 (KHTML, like Gecko) Chrome/126.0.0.0 Safari/537.36 Edg/126.0.0.0" version="24.4.15" etag="S-8QSER1lzrEaHXWeuNd" type="github">
  <diagram name="Page-1" id="2H1_gQXCr9Uo4q-PuIH_">
    <mxGraphModel>
      <root>
        <mxCell id="0" />
        <mxCell id="1" parent="0" />
      </root>
    </mxGraphModel>
  </diagram>
</mxfile>
